<svg width="58" height="25" viewBox="0 0 58 25" fill="none" xmlns="http://www.w3.org/2000/svg">
<path d="M10.7679 3.11344C11.4283 2.26432 11.9001 1.13216 11.7586 0C10.7679 0.0471734 9.58858 0.660426 8.88098 1.46237C8.26772 2.16997 7.70164 3.34931 7.84316 4.4343C8.97533 4.57582 10.0603 3.96256 10.7679 3.11344ZM11.7586 4.71734C10.1547 4.62299 8.78663 5.61363 8.03186 5.61363C7.27708 5.61363 6.09775 4.76451 4.82407 4.76451C3.173 4.81168 1.66345 5.70798 0.814334 7.21752C-0.883907 10.1894 0.342601 14.5766 2.04084 16.9824C2.84279 18.1617 3.83343 19.4826 5.10711 19.4354C6.33362 19.3883 6.80535 18.6335 8.26773 18.6335C9.7301 18.6335 10.1547 19.4354 11.4755 19.3883C12.7964 19.3411 13.6455 18.2089 14.4474 16.9824C15.3909 15.6144 15.7683 14.2935 15.7683 14.2464C15.7211 14.1992 13.1738 13.2557 13.1738 10.331C13.1266 7.87795 15.155 6.69862 15.2494 6.65144C14.1644 4.9532 12.3718 4.76451 11.7586 4.71734Z" fill="white"/>
<path d="M26.6273 1.36792C30.1182 1.36792 32.524 3.77376 32.524 7.21742C32.524 10.7082 30.071 13.1141 26.533 13.1141H22.7119V19.1994H19.9287V1.36792H26.6273ZM22.7119 10.8026H25.8726C28.2784 10.8026 29.6464 9.48174 29.6464 7.26459C29.6464 5.00027 28.2784 3.72659 25.8726 3.72659H22.6648V10.8026H22.7119ZM33.2316 15.5671C33.2316 13.3028 34.977 11.8876 38.0905 11.6989L41.6756 11.5102V10.5196C41.6756 9.05718 40.685 8.20806 39.0811 8.20806C37.5244 8.20806 36.5809 8.96283 36.345 10.095H33.7977C33.9392 7.73632 35.9677 5.99091 39.1754 5.99091C42.3361 5.99091 44.3645 7.64198 44.3645 10.2837V19.2466H41.8172V17.1238H41.77C41.0152 18.5862 39.3641 19.4825 37.6659 19.4825C35.0242 19.4825 33.2316 17.8786 33.2316 15.5671ZM41.6756 14.3878V13.35L38.4678 13.5386C36.8639 13.633 35.9677 14.3406 35.9677 15.4728C35.9677 16.6049 36.9111 17.3597 38.3263 17.3597C40.2133 17.3597 41.6756 16.086 41.6756 14.3878ZM46.7232 24.0583V21.8883C46.9119 21.9355 47.3836 21.9355 47.5723 21.9355C48.7988 21.9355 49.4592 21.4166 49.8838 20.0957C49.8838 20.0486 50.1197 19.2938 50.1197 19.2938L45.4023 6.27395H48.2799L51.582 16.888H51.6292L54.9313 6.27395H57.7617L52.9029 20.0014C51.7707 23.162 50.497 24.1526 47.8082 24.1526C47.6195 24.1055 46.959 24.1055 46.7232 24.0583Z" fill="white"/>
</svg>
