<svg width="56" height="56" viewBox="0 0 56 56" fill="none" xmlns="http://www.w3.org/2000/svg">
<path fill-rule="evenodd" clip-rule="evenodd" d="M-0.000257492 28.0002C-0.000257492 12.5363 12.5358 0.000230789 27.9997 0.000230789C43.4637 0.000230789 55.9998 12.5363 55.9998 28.0002C55.9998 43.4642 43.4637 56.0002 27.9997 56.0002C12.5358 56.0002 -0.000257492 43.4642 -0.000257492 28.0002ZM1.11975 28.0002C1.11975 13.1548 13.1543 1.12023 27.9997 1.12023C42.8452 1.12023 54.8798 13.1548 54.8798 28.0002C54.8798 42.8457 42.8452 54.8802 27.9997 54.8802C13.1543 54.8802 1.11975 42.8457 1.11975 28.0002ZM21.2661 36.4002L12.8799 28.007L12.8866 28.0003L12.8797 27.9934L21.266 19.6002L22.7509 21.0864L16.8995 26.9426L41.7198 26.9426V29.0443L16.8861 29.0443L22.751 34.9141L21.2661 36.4002Z" fill="white"/>
</svg>
